<svg viewBox="0 0 290 330" style="outline: 4px solid blue; border-radius: 10%">
  <text font-size='32px' font-weight='bold' fill='blue' text-anchor='middle'
    x='50%' y='11%'>
    Memory Match
  </text>

  <rect x="15" y="55" rx="10" ry="10" width="50" height="50" fill="white" stroke="blue" stroke-width="2.5" />
  <rect x="85" y="55" rx="10" ry="10" width="50" height="50" fill="white" stroke="blue" stroke-width="2.5" />
  <rect x="155" y="55" rx="10" ry="10" width="50" height="50" fill="blue" />
  <rect x="225" y="55" rx="10" ry="10" width="50" height="50" fill="white" stroke="blue" stroke-width="2.5" />
  <rect x="15" y="125" rx="10" ry="10" width="50" height="50" fill="white" stroke="blue" stroke-width="2.5" />
  <rect x="85" y="125" rx="10" ry="10" width="50" height="50" fill="white" stroke="blue" stroke-width="2.5" />
  <rect x="155" y="125" rx="10" ry="10" width="50" height="50" fill="white" stroke="blue" stroke-width="2.5" />
  <rect x="225" y="125" rx="10" ry="10" width="50" height="50" fill="white" stroke="blue" stroke-width="2.5" />
  <rect x="15" y="195" rx="10" ry="10" width="50" height="50" fill="white" stroke="blue" stroke-width="2.5" />
  <rect x="85" y="195" rx="10" ry="10" width="50" height="50" fill="blue" />
  <rect x="155" y="195" rx="10" ry="10" width="50" height="50" fill="white" stroke="blue" stroke-width="2.5" />
  <rect x="225" y="195" rx="10" ry="10" width="50" height="50" fill="white" stroke="blue" stroke-width="2.5" />
  <rect x="15" y="265" rx="10" ry="10" width="50" height="50" fill="white" stroke="blue" stroke-width="2.5" />
  <rect x="85" y="265" rx="10" ry="10" width="50" height="50" fill="white" stroke="blue" stroke-width="2.5" />
  <rect x="155" y="265" rx="10" ry="10" width="50" height="50" fill="white" stroke="blue" stroke-width="2.5" />
  <rect x="225" y="265" rx="10" ry="10" width="50" height="50" fill="white" stroke="blue" stroke-width="2.5" />


</svg>